<?xml version="1.0" encoding="utf-8"?>
<!-- Generator: Adobe Illustrator 22.0.1, SVG Export Plug-In . SVG Version: 6.00 Build 0)  -->
<svg version="1.1" id="Layer_1" xmlns="http://www.w3.org/2000/svg" xmlns:xlink="http://www.w3.org/1999/xlink" x="0px" y="0px"
	 viewBox="0 0 519 268" style="enable-background:new 0 0 519 268;" xml:space="preserve">
<style type="text/css">
	.st0{fill:url(#SVGID_1_);stroke:#000000;stroke-miterlimit:10;}
	.st1{fill:#FFFFFF;}
	.st2{fill:#E11F22;}
</style>
<linearGradient id="SVGID_1_" gradientUnits="userSpaceOnUse" x1="0" y1="134" x2="519" y2="134">
	<stop  offset="4.890638e-08" style="stop-color:#0084E7"/>
	<stop  offset="1" style="stop-color:#00407F"/>
</linearGradient>
<rect class="st0" width="519" height="268"/>
<title>Logo</title>
<desc>Created with Sketch.</desc>
<g id="Symbols">
	<g id="Logo">
		<path id="d" class="st1" d="M489.5,69.5h17v96h-59c-8.3,0-15-6.7-15-15v-40c0-8.3,6.7-15,15-15l0,0h42V69.5z M452.5,112.5
			c-1.7,0-3,1.3-3,3v30c0,1.7,1.3,3,3,3h37v-36H452.5z"/>
		<g id="i" transform="translate(396.000000, 55.000000)">
			<polygon id="Path-6" class="st1" points="12.5,40.5 29.5,40.5 29.5,110.5 12.5,110.5 			"/>
			<polygon id="Path-7" class="st2" points="12.5,14.5 29.5,14.5 29.5,31.5 12.5,31.5 			"/>
		</g>
		<path id="r" class="st1" d="M343.5,165.5h17v-50l0,0c0-1.7,1.3-3,3-3h38v-17h-43l0,0c-8.3,0-15,6.7-15,15V165.5z"/>
		<path id="G" class="st1" d="M336.5,100.5v-10l0,0c0-8.3-6.7-15-15-15h-60l0,0c-8.3,0-15,6.7-15,15v60l0,0c0,8.3,6.7,15,15,15h60
			l0,0c8.3,0,15-6.7,15-15v-36h-37v17h20v14l0,0c0,1.7-1.3,3-3,3h-50l0,0c-1.7,0-3-1.3-3-3v-50l0,0c0-1.7,1.3-3,3-3h50l0,0
			c1.7,0,3,1.3,3,3v5H336.5z"/>
		<g id="ag">
			<g id="Combined-Shape">
				<g>
					<path id="path-1_1_" class="st2" d="M13.1,122.5V82l0,0c0-5.4,2.9-10.3,7.5-13l90.2-52.1l0,0c4.6-2.7,10.4-2.7,15,0l0,0L216,69
						l0,0c4.6,2.7,7.5,7.6,7.5,13v70.5h-30l0-44h0c0-8.3-6.7-15-15-15l-44,0c-8.3,0-15,6.7-15,15v42l0,0c0,8.3,6.7,15,15,15h46v12
						c0,1.7-1.3,3-3,3h-45v13h46v0c8.3,0,15-6.7,15-15l0-13h30v20.6l0,0c0,5.4-2.9,10.3-7.5,13l-90.2,52.1l0,0
						c-4.6,2.7-10.4,2.7-15,0l-90.2-52.1l0,0c-4.6-2.7-7.5-7.6-7.5-13v-50.6h26.4v15c0,8.3,6.7,15,15,15l0,0h58v-57
						c0-8.3-6.7-15-15-15h-58v13h57c1.7,0,3,1.3,3,3l0,0v13H13.1z"/>
				</g>
			</g>
			<path id="g" class="st2" d="M135.5,106.5h42c1.7,0,3,1.3,3,3v40c0,1.7-1.3,3-3,3h-42c-1.7,0-3-1.3-3-3v-40
				C132.5,107.8,133.8,106.5,135.5,106.5z"/>
			<path id="Combined-Shape_1_" class="st2" d="M52.5,135.5h47v17h-44l0,0c-1.7,0-3-1.3-3-3V135.5z"/>
		</g>
	</g>
</g>
</svg>
